GSerif01-TextRegular02.ufo
<glyph name="A" format="1">
  <advance width="683"/>
  <unicode hex="0041"/>
  <outline>
    <contour>
      <point x="61" y="0" type="line"/>
      <point x="119" y="0" type="line"/>
      <point x="345" y="710" type="line"/>
      <point x="288" y="710" type="line"/>
    </contour>
    <contour>
      <point x="522" y="0" type="line"/>
      <point x="624" y="0" type="line"/>
      <point x="394" y="710" type="line"/>
      <point x="312" y="710" type="line"/>
      <point x="310" y="670" type="line"/>
    </contour>
    <contour>
      <point x="190" y="295" type="line"/>
      <point x="182" y="247" type="line"/>
      <point x="461" y="247" type="line"/>
      <point x="460" y="295" type="line"/>
    </contour>
    <contour>
      <point x="14" y="0" type="line"/>
      <point x="235" y="0" type="line"/>
      <point x="235" y="44" type="line"/>
      <point x="218" y="44" type="line" smooth="yes"/>
      <point x="177" y="44"/>
      <point x="139" y="52"/>
      <point x="139" y="63" type="curve"/>
      <point x="90" y="92" type="line"/>
      <point x="77" y="53"/>
      <point x="55" y="44"/>
      <point x="19" y="44" type="curve"/>
      <point x="14" y="44" type="line"/>
    </contour>
    <contour>
      <point x="670" y="0" type="line"/>
      <point x="670" y="44" type="line"/>
      <point x="665" y="44" type="line"/>
      <point x="630" y="44"/>
      <point x="609" y="47"/>
      <point x="598" y="79" type="curve"/>
      <point x="505" y="55" type="line"/>
      <point x="505" y="48"/>
      <point x="459" y="44"/>
      <point x="422" y="44" type="curve" smooth="yes"/>
      <point x="406" y="44" type="line"/>
      <point x="406" y="0" type="line"/>
    </contour>
  </outline>
</glyph>
<glyph name="F" format="1">
  <advance width="614"/>
  <unicode hex="0046"/>
  <outline>
    <contour>
      <point x="141" y="0" type="line"/>
      <point x="246" y="0" type="line"/>
      <point x="246" y="710" type="line"/>
      <point x="141" y="710" type="line"/>
    </contour>
    <contour>
      <point x="212" y="381" type="line"/>
      <point x="212" y="329" type="line"/>
      <point x="475" y="329" type="line"/>
      <point x="475" y="381" type="line"/>
    </contour>
    <contour>
      <point x="565" y="710" type="line"/>
      <point x="49" y="710" type="line"/>
      <point x="49" y="665" type="line"/>
      <point x="58" y="665" type="line" smooth="yes"/>
      <point x="104" y="665"/>
      <point x="141" y="658"/>
      <point x="141" y="629" type="curve"/>
      <point x="199" y="658" type="line"/>
      <point x="372" y="658" type="line" smooth="yes"/>
      <point x="460" y="658"/>
      <point x="496" y="649"/>
      <point x="501" y="612" type="curve" smooth="yes"/>
      <point x="513" y="517" type="line"/>
      <point x="565" y="517" type="line"/>
    </contour>
    <contour>
      <point x="49" y="0" type="line"/>
      <point x="354" y="0" type="line"/>
      <point x="354" y="44" type="line"/>
      <point x="338" y="44" type="line" smooth="yes"/>
      <point x="296" y="44"/>
      <point x="246" y="47"/>
      <point x="246" y="77" type="curve"/>
      <point x="141" y="80" type="line"/>
      <point x="141" y="51"/>
      <point x="105" y="44"/>
      <point x="58" y="44" type="curve" smooth="yes"/>
      <point x="49" y="44" type="line"/>
    </contour>
  </outline>
</glyph>
<glyph name="J" format="1">
  <advance width="526"/>
  <unicode hex="004A"/>
  <outline>
    <contour>
      <point x="40" y="8" type="line"/>
      <point x="74" y="-3"/>
      <point x="113" y="-10"/>
      <point x="164" y="-10" type="curve" smooth="yes"/>
      <point x="297" y="-10"/>
      <point x="387" y="58"/>
      <point x="387" y="247" type="curve" smooth="yes"/>
      <point x="387" y="710" type="line"/>
      <point x="282" y="710" type="line"/>
      <point x="282" y="239" type="line" smooth="yes"/>
      <point x="282" y="88"/>
      <point x="236" y="45"/>
      <point x="161" y="45" type="curve" smooth="yes"/>
      <point x="120" y="45"/>
      <point x="83" y="55"/>
      <point x="40" y="70" type="curve"/>
    </contour>
    <contour>
      <point x="387" y="630" type="line"/>
      <point x="387" y="659"/>
      <point x="424" y="666"/>
      <point x="470" y="666" type="curve" smooth="yes"/>
      <point x="479" y="666" type="line"/>
      <point x="479" y="710" type="line"/>
      <point x="179" y="710" type="line"/>
      <point x="179" y="666" type="line"/>
      <point x="198" y="666" type="line" smooth="yes"/>
      <point x="245" y="666"/>
      <point x="282" y="659"/>
      <point x="282" y="630" type="curve"/>
    </contour>
  </outline>
</glyph>
<glyph name="K" format="1">
  <advance width="740"/>
  <unicode hex="004B"/>
  <outline>
    <contour>
      <point x="49" y="0" type="line"/>
      <point x="337" y="0" type="line"/>
      <point x="337" y="44" type="line"/>
      <point x="329" y="44" type="line" smooth="yes"/>
      <point x="293" y="44"/>
      <point x="246" y="47"/>
      <point x="246" y="54" type="curve"/>
      <point x="141" y="80" type="line"/>
      <point x="141" y="51"/>
      <point x="105" y="44"/>
      <point x="58" y="44" type="curve" smooth="yes"/>
      <point x="49" y="44" type="line"/>
    </contour>
    <contour>
      <point x="49" y="710" type="line"/>
      <point x="49" y="666" type="line"/>
      <point x="58" y="666" type="line" smooth="yes"/>
      <point x="105" y="666"/>
      <point x="141" y="659"/>
      <point x="141" y="630" type="curve"/>
      <point x="246" y="656" type="line"/>
      <point x="246" y="663"/>
      <point x="293" y="666"/>
      <point x="329" y="666" type="curve" smooth="yes"/>
      <point x="337" y="666" type="line"/>
      <point x="337" y="710" type="line"/>
    </contour>
    <contour>
      <point x="569" y="0" type="line"/>
      <point x="692" y="6" type="line"/>
      <point x="358" y="400" type="line"/>
      <point x="331" y="346" type="line"/>
      <point x="659" y="703" type="line"/>
      <point x="593" y="710" type="line"/>
      <point x="273" y="360" type="line"/>
      <point x="275" y="347" type="line"/>
    </contour>
    <contour>
      <point x="728" y="44" type="line"/>
      <point x="719" y="44" type="line" smooth="yes"/>
      <point x="672" y="44"/>
      <point x="656" y="49"/>
      <point x="629" y="80" type="curve"/>
      <point x="523" y="54" type="line"/>
      <point x="523" y="47"/>
      <point x="476" y="44"/>
      <point x="444" y="44" type="curve" smooth="yes"/>
      <point x="435" y="44" type="line"/>
      <point x="435" y="0" type="line"/>
      <point x="728" y="0" type="line"/>
    </contour>
    <contour>
      <point x="692" y="710" type="line"/>
      <point x="455" y="710" type="line"/>
      <point x="455" y="666" type="line"/>
      <point x="464" y="666" type="line" smooth="yes"/>
      <point x="500" y="666"/>
      <point x="541" y="661"/>
      <point x="541" y="654" type="curve"/>
      <point x="587" y="626" type="line"/>
      <point x="615" y="656"/>
      <point x="634" y="666"/>
      <point x="680" y="666" type="curve" smooth="yes"/>
      <point x="692" y="666" type="line"/>
    </contour>
    <contour>
      <point x="141" y="0" type="line"/>
      <point x="246" y="0" type="line"/>
      <point x="246" y="710" type="line"/>
      <point x="141" y="710" type="line"/>
    </contour>
  </outline>
</glyph>
<glyph name="L" format="1">
  <advance width="629"/>
  <unicode hex="004C"/>
  <outline>
    <contour>
      <point x="141" y="0" type="line"/>
      <point x="246" y="0" type="line"/>
      <point x="246" y="710" type="line"/>
      <point x="141" y="710" type="line"/>
    </contour>
    <contour>
      <point x="49" y="0" type="line"/>
      <point x="582" y="0" type="line"/>
      <point x="582" y="226" type="line"/>
      <point x="527" y="226" type="line"/>
      <point x="514" y="99" type="line" smooth="yes"/>
      <point x="510" y="61"/>
      <point x="474" y="52"/>
      <point x="386" y="52" type="curve" smooth="yes"/>
      <point x="189" y="52" type="line"/>
      <point x="141" y="80" type="line"/>
      <point x="141" y="51"/>
      <point x="105" y="44"/>
      <point x="58" y="44" type="curve" smooth="yes"/>
      <point x="49" y="44" type="line"/>
    </contour>
    <contour>
      <point x="341" y="710" type="line"/>
      <point x="49" y="710" type="line"/>
      <point x="49" y="666" type="line"/>
      <point x="58" y="666" type="line" smooth="yes"/>
      <point x="104" y="666"/>
      <point x="141" y="659"/>
      <point x="141" y="630" type="curve"/>
      <point x="246" y="636" type="line"/>
      <point x="246" y="660"/>
      <point x="284" y="666"/>
      <point x="331" y="666" type="curve" smooth="yes"/>
      <point x="341" y="666" type="line"/>
    </contour>
  </outline>
</glyph>
<glyph name="Q" format="1">
  <advance width="807"/>
  <unicode hex="0051"/>
  <outline>
    <contour>
      <point x="403" y="-10" type="curve" smooth="yes"/>
      <point x="603" y="-10"/>
      <point x="757" y="139"/>
      <point x="757" y="355" type="curve" smooth="yes"/>
      <point x="757" y="572"/>
      <point x="603" y="720"/>
      <point x="403" y="720" type="curve" smooth="yes"/>
      <point x="204" y="720"/>
      <point x="50" y="572"/>
      <point x="50" y="355" type="curve" smooth="yes"/>
      <point x="50" y="139"/>
      <point x="204" y="-10"/>
    </contour>
    <contour>
      <point x="403" y="45" type="curve" smooth="yes"/>
      <point x="263" y="45"/>
      <point x="163" y="165"/>
      <point x="163" y="355" type="curve" smooth="yes"/>
      <point x="163" y="545"/>
      <point x="263" y="665"/>
      <point x="403" y="665" type="curve" smooth="yes"/>
      <point x="544" y="665"/>
      <point x="645" y="545"/>
      <point x="645" y="355" type="curve" smooth="yes"/>
      <point x="645" y="165"/>
      <point x="544" y="45"/>
    </contour>
    <contour>
      <point x="378" y="16" type="line"/>
      <point x="408" y="-126"/>
      <point x="503" y="-189"/>
      <point x="704" y="-186" type="curve"/>
      <point x="704" y="-92" type="line"/>
      <point x="544" y="-94"/>
      <point x="459" y="-85"/>
      <point x="434" y="35" type="curve"/>
    </contour>
  </outline>
</glyph>
<glyph name="R" format="1">
  <advance width="712"/>
  <unicode hex="0052"/>
  <outline>
    <contour>
      <point x="143" y="0" type="line"/>
      <point x="248" y="0" type="line"/>
      <point x="248" y="710" type="line"/>
      <point x="143" y="710" type="line"/>
    </contour>
    <contour>
      <point x="364" y="321" type="line"/>
      <point x="528" y="0" type="line"/>
      <point x="642" y="0" type="line"/>
      <point x="635" y="28" type="line"/>
      <point x="464" y="337" type="line"/>
    </contour>
    <contour>
      <point x="687" y="0" type="line"/>
      <point x="687" y="44" type="line"/>
      <point x="680" y="44" type="line"/>
      <point x="641" y="44"/>
      <point x="623" y="48"/>
      <point x="605" y="80" type="curve"/>
      <point x="596" y="0" type="line"/>
    </contour>
    <contour>
      <point x="201" y="658" type="line"/>
      <point x="341" y="658" type="line" smooth="yes"/>
      <point x="445" y="658"/>
      <point x="497" y="599"/>
      <point x="497" y="506" type="curve" smooth="yes"/>
      <point x="497" y="412"/>
      <point x="449" y="355"/>
      <point x="337" y="355" type="curve" smooth="yes"/>
      <point x="199" y="355" type="line"/>
      <point x="199" y="305" type="line"/>
      <point x="340" y="305" type="line" smooth="yes"/>
      <point x="505" y="305"/>
      <point x="609" y="384"/>
      <point x="609" y="507" type="curve" smooth="yes"/>
      <point x="609" y="629"/>
      <point x="511" y="710"/>
      <point x="346" y="710" type="curve" smooth="yes"/>
      <point x="51" y="710" type="line"/>
      <point x="51" y="666" type="line"/>
      <point x="60" y="666" type="line"/>
      <point x="107" y="666"/>
      <point x="143" y="659"/>
      <point x="143" y="630" type="curve"/>
    </contour>
    <contour>
      <point x="51" y="0" type="line"/>
      <point x="332" y="0" type="line"/>
      <point x="332" y="44" type="line"/>
      <point x="324" y="44" type="line" smooth="yes"/>
      <point x="290" y="44"/>
      <point x="248" y="47"/>
      <point x="248" y="54" type="curve"/>
      <point x="143" y="80" type="line"/>
      <point x="143" y="51"/>
      <point x="107" y="44"/>
      <point x="60" y="44" type="curve" smooth="yes"/>
      <point x="51" y="44" type="line"/>
    </contour>
  </outline>
</glyph>
<glyph name="S" format="1">
  <advance width="642"/>
  <unicode hex="0053"/>
  <outline>
    <contour>
      <point x="338" y="44" type="curve" smooth="yes"/>
      <point x="235" y="44"/>
      <point x="146" y="105"/>
      <point x="121" y="222" type="curve"/>
      <point x="47" y="222" type="line"/>
      <point x="47" y="0" type="line"/>
      <point x="102" y="0" type="line"/>
      <point x="115" y="158" type="line"/>
      <point x="112" y="164"/>
      <point x="95" y="158"/>
      <point x="86" y="162" type="curve"/>
      <point x="124" y="42"/>
      <point x="233" y="-10"/>
      <point x="344" y="-10" type="curve" smooth="yes"/>
      <point x="478" y="-10"/>
      <point x="587" y="64"/>
      <point x="587" y="197" type="curve" smooth="yes"/>
      <point x="587" y="339"/>
      <point x="469" y="378"/>
      <point x="357" y="409" type="curve" smooth="yes"/>
      <point x="255" y="438"/>
      <point x="161" y="457"/>
      <point x="161" y="546" type="curve" smooth="yes"/>
      <point x="161" y="619"/>
      <point x="211" y="666"/>
      <point x="304" y="666" type="curve" smooth="yes"/>
      <point x="398" y="666"/>
      <point x="468" y="611"/>
      <point x="484" y="522" type="curve"/>
      <point x="554" y="522" type="line"/>
      <point x="554" y="710" type="line"/>
      <point x="501" y="710" type="line"/>
      <point x="488" y="574" type="line"/>
      <point x="497" y="569"/>
      <point x="513" y="568"/>
      <point x="518" y="573" type="curve"/>
      <point x="478" y="683"/>
      <point x="391" y="720"/>
      <point x="293" y="720" type="curve" smooth="yes"/>
      <point x="165" y="720"/>
      <point x="68" y="644"/>
      <point x="68" y="531" type="curve"/>
      <point x="68" y="391"/>
      <point x="183" y="355"/>
      <point x="293" y="324" type="curve" smooth="yes"/>
      <point x="393" y="296"/>
      <point x="488" y="272"/>
      <point x="488" y="172" type="curve" smooth="yes"/>
      <point x="488" y="82"/>
      <point x="429" y="44"/>
    </contour>
  </outline>
</glyph>
<glyph name="W" format="1">
  <advance width="1058"/>
  <unicode hex="0057"/>
  <outline>
    <contour>
      <point x="169" y="710" type="line"/>
      <point x="67" y="710" type="line"/>
      <point x="262" y="0" type="line"/>
      <point x="344" y="0" type="line"/>
      <point x="346" y="40" type="line"/>
    </contour>
    <contour>
      <point x="18" y="710" type="line"/>
      <point x="18" y="666" type="line"/>
      <point x="22" y="666" type="line" smooth="yes"/>
      <point x="58" y="666"/>
      <point x="79" y="663"/>
      <point x="89" y="632" type="curve"/>
      <point x="184" y="656" type="line"/>
      <point x="184" y="663"/>
      <point x="231" y="666"/>
      <point x="269" y="666" type="curve" smooth="yes"/>
      <point x="285" y="666" type="line"/>
      <point x="285" y="710" type="line"/>
    </contour>
    <contour>
      <point x="988" y="710" type="line"/>
      <point x="930" y="710" type="line"/>
      <point x="747" y="0" type="line"/>
      <point x="802" y="0" type="line"/>
    </contour>
    <contour>
      <point x="1040" y="710" type="line"/>
      <point x="815" y="710" type="line"/>
      <point x="815" y="666" type="line"/>
      <point x="833" y="666" type="line" smooth="yes"/>
      <point x="875" y="666"/>
      <point x="914" y="658"/>
      <point x="914" y="647" type="curve"/>
      <point x="963" y="614" type="line"/>
      <point x="974" y="654"/>
      <point x="999" y="666"/>
      <point x="1035" y="666" type="curve" smooth="yes"/>
      <point x="1040" y="666" type="line"/>
    </contour>
    <contour>
      <point x="595" y="710" type="line"/>
      <point x="505" y="710" type="line"/>
      <point x="313" y="0" type="line"/>
      <point x="367" y="0" type="line"/>
      <point x="543" y="644" type="line"/>
      <point x="519" y="636" type="line"/>
      <point x="698" y="0" type="line"/>
      <point x="779" y="0" type="line"/>
      <point x="781" y="40" type="line"/>
    </contour>
  </outline>
</glyph>
<glyph name="l" format="1">
  <advance width="338"/>
  <unicode hex="006C"/>
  <outline>
    <contour>
      <point x="43" y="750" type="line"/>
      <point x="43" y="705" type="line"/>
      <point x="53" y="703" type="line" smooth="yes"/>
      <point x="103" y="694"/>
      <point x="127" y="687"/>
      <point x="127" y="658" type="curve" smooth="yes"/>
      <point x="127" y="0" type="line"/>
      <point x="226" y="0" type="line"/>
      <point x="226" y="750" type="line"/>
    </contour>
    <contour>
      <point x="309" y="0" type="line"/>
      <point x="309" y="42" type="line"/>
      <point x="309" y="42" type="line"/>
      <point x="262" y="42"/>
      <point x="226" y="49"/>
      <point x="226" y="78" type="curve"/>
      <point x="127" y="78" type="line"/>
      <point x="127" y="49"/>
      <point x="91" y="42"/>
      <point x="44" y="42" type="curve"/>
      <point x="43" y="42" type="line"/>
      <point x="43" y="0" type="line"/>
    </contour>
  </outline>
</glyph>
<glyph name="o" format="1">
  <advance width="643"/>
  <unicode hex="006F"/>
  <outline>
    <contour>
      <point x="321" y="-12" type="curve"/>
      <point x="480" y="-12"/>
      <point x="594" y="100"/>
      <point x="594" y="269" type="curve" smooth="yes"/>
      <point x="594" y="437"/>
      <point x="480" y="550"/>
      <point x="321" y="550" type="curve" smooth="yes"/>
      <point x="163" y="550"/>
      <point x="48" y="438"/>
      <point x="48" y="269" type="curve" smooth="yes"/>
      <point x="48" y="100"/>
      <point x="163" y="-12"/>
    </contour>
    <contour>
      <point x="321" y="41" type="curve"/>
      <point x="216" y="41"/>
      <point x="154" y="131"/>
      <point x="154" y="269" type="curve" smooth="yes"/>
      <point x="154" y="407"/>
      <point x="216" y="497"/>
      <point x="321" y="497" type="curve" smooth="yes"/>
      <point x="427" y="497"/>
      <point x="489" y="407"/>
      <point x="489" y="269" type="curve" smooth="yes"/>
      <point x="489" y="130"/>
      <point x="427" y="41"/>
    </contour>
  </outline>
</glyph>
<glyph name="r" format="1">
  <advance width="429"/>
  <unicode hex="0072"/>
  <outline>
    <contour>
      <point x="405" y="547" type="line"/>
      <point x="398" y="549"/>
      <point x="387" y="550"/>
      <point x="374" y="550" type="curve" smooth="yes"/>
      <point x="298" y="550"/>
      <point x="241" y="488"/>
      <point x="204" y="388" type="curve"/>
      <point x="214" y="344" type="line"/>
      <point x="251" y="430"/>
      <point x="287" y="462"/>
      <point x="347" y="462" type="curve" smooth="yes"/>
      <point x="366" y="462"/>
      <point x="386" y="459"/>
      <point x="405" y="454" type="curve"/>
    </contour>
    <contour>
      <point x="43" y="0" type="line"/>
      <point x="320" y="0" type="line"/>
      <point x="320" y="42" type="line"/>
      <point x="305" y="42" type="line" smooth="yes"/>
      <point x="277" y="42"/>
      <point x="226" y="45"/>
      <point x="226" y="72" type="curve"/>
      <point x="127" y="78" type="line"/>
      <point x="127" y="49"/>
      <point x="91" y="42"/>
      <point x="44" y="42" type="curve"/>
      <point x="43" y="42" type="line"/>
    </contour>
    <contour>
      <point x="43" y="540" type="line"/>
      <point x="43" y="495" type="line"/>
      <point x="53" y="493" type="line" smooth="yes"/>
      <point x="102" y="484"/>
      <point x="127" y="477"/>
      <point x="127" y="448" type="curve" smooth="yes"/>
      <point x="127" y="0" type="line"/>
      <point x="226" y="0" type="line"/>
      <point x="226" y="399" type="line"/>
      <point x="218" y="391" type="line"/>
      <point x="218" y="540" type="line"/>
    </contour>
  </outline>
</glyph>
<glyph name="z" format="1">
  <advance width="506"/>
  <unicode hex="007A"/>
  <outline>
    <contour>
      <point x="107" y="52" type="line"/>
      <point x="130" y="34" type="line"/>
      <point x="465" y="488" type="line"/>
      <point x="465" y="540" type="line"/>
      <point x="55" y="540" type="line"/>
      <point x="55" y="374" type="line"/>
      <point x="104" y="374" type="line"/>
      <point x="116" y="444" type="line" smooth="yes"/>
      <point x="122" y="482"/>
      <point x="154" y="489"/>
      <point x="236" y="489" type="curve" smooth="yes"/>
      <point x="393" y="489" type="line"/>
      <point x="373" y="506" type="line"/>
      <point x="38" y="57" type="line"/>
      <point x="38" y="0" type="line"/>
      <point x="475" y="0" type="line"/>
      <point x="475" y="182" type="line"/>
      <point x="425" y="182" type="line"/>
      <point x="412" y="98" type="line" smooth="yes"/>
      <point x="406" y="59"/>
      <point x="374" y="52"/>
      <point x="292" y="52" type="curve" smooth="yes"/>
    </contour>
  </outline>
</glyph>
<glyph name="K.alt" format="1">
  <advance width="747"/>
  <outline>
    <contour>
      <point x="571" y="0" type="line"/>
      <point x="664" y="2" type="line"/>
      <point x="675" y="26" type="line"/>
      <point x="377" y="413" type="line"/>
      <point x="354" y="352" type="line"/>
      <point x="627" y="679" type="line"/>
      <point x="625" y="707" type="line"/>
      <point x="584" y="710" type="line"/>
      <point x="298" y="367" type="line"/>
      <point x="307" y="348" type="line"/>
    </contour>
    <contour>
      <point x="141" y="0" type="line"/>
      <point x="246" y="0" type="line"/>
      <point x="246" y="710" type="line"/>
      <point x="141" y="710" type="line"/>
    </contour>
    <contour>
      <point x="49" y="710" type="line"/>
      <point x="49" y="666" type="line"/>
      <point x="58" y="666" type="line" smooth="yes"/>
      <point x="105" y="666"/>
      <point x="141" y="659"/>
      <point x="141" y="630" type="curve"/>
      <point x="246" y="656" type="line"/>
      <point x="246" y="663"/>
      <point x="293" y="666"/>
      <point x="329" y="666" type="curve" smooth="yes"/>
      <point x="337" y="666" type="line"/>
      <point x="337" y="710" type="line"/>
    </contour>
    <contour>
      <point x="686" y="710" type="line"/>
      <point x="450" y="710" type="line"/>
      <point x="450" y="666" type="line"/>
      <point x="460" y="666" type="line" smooth="yes"/>
      <point x="498" y="666"/>
      <point x="535" y="658"/>
      <point x="535" y="651" type="curve"/>
      <point x="580" y="623" type="line"/>
      <point x="605" y="653"/>
      <point x="631" y="666"/>
      <point x="674" y="666" type="curve" smooth="yes"/>
      <point x="686" y="666" type="line"/>
    </contour>
    <contour>
      <point x="49" y="0" type="line"/>
      <point x="337" y="0" type="line"/>
      <point x="337" y="44" type="line"/>
      <point x="329" y="44" type="line" smooth="yes"/>
      <point x="293" y="44"/>
      <point x="246" y="47"/>
      <point x="246" y="54" type="curve"/>
      <point x="141" y="80" type="line"/>
      <point x="141" y="51"/>
      <point x="105" y="44"/>
      <point x="58" y="44" type="curve" smooth="yes"/>
      <point x="49" y="44" type="line"/>
    </contour>
    <contour>
      <point x="736" y="0" type="line"/>
      <point x="736" y="44" type="line"/>
      <point x="727" y="44" type="line" smooth="yes"/>
      <point x="679" y="44"/>
      <point x="656" y="50"/>
      <point x="632" y="81" type="curve"/>
      <point x="530" y="54" type="line"/>
      <point x="530" y="47"/>
      <point x="486" y="44"/>
      <point x="453" y="44" type="curve" smooth="yes"/>
      <point x="443" y="44" type="line"/>
      <point x="443" y="0" type="line"/>
    </contour>
    <contour>
      <point x="220" y="394" type="line"/>
      <point x="220" y="339" type="line"/>
      <point x="346" y="339" type="line"/>
      <point x="345" y="394" type="line"/>
    </contour>
  </outline>
</glyph>
<glyph name="Q.alt4" format="1">
  <advance width="807"/>
  <outline>
    <contour>
      <point x="403" y="-10" type="curve" smooth="yes"/>
      <point x="603" y="-10"/>
      <point x="757" y="139"/>
      <point x="757" y="355" type="curve" smooth="yes"/>
      <point x="757" y="572"/>
      <point x="603" y="720"/>
      <point x="403" y="720" type="curve" smooth="yes"/>
      <point x="204" y="720"/>
      <point x="50" y="572"/>
      <point x="50" y="355" type="curve" smooth="yes"/>
      <point x="50" y="139"/>
      <point x="204" y="-10"/>
    </contour>
    <contour>
      <point x="403" y="45" type="curve" smooth="yes"/>
      <point x="263" y="45"/>
      <point x="163" y="165"/>
      <point x="163" y="355" type="curve" smooth="yes"/>
      <point x="163" y="545"/>
      <point x="263" y="665"/>
      <point x="403" y="665" type="curve" smooth="yes"/>
      <point x="544" y="665"/>
      <point x="645" y="545"/>
      <point x="645" y="355" type="curve" smooth="yes"/>
      <point x="645" y="165"/>
      <point x="544" y="45"/>
    </contour>
    <contour>
      <point x="372" y="-6" type="line"/>
      <point x="364" y="-132"/>
      <point x="461" y="-188"/>
      <point x="586" y="-188" type="curve" smooth="yes"/>
      <point x="632" y="-188"/>
      <point x="683" y="-182"/>
      <point x="729" y="-172" type="curve"/>
      <point x="729" y="-74" type="line"/>
      <point x="678" y="-89"/>
      <point x="637" y="-104"/>
      <point x="569" y="-104" type="curve" smooth="yes"/>
      <point x="486" y="-104"/>
      <point x="427" y="-75"/>
      <point x="432" y="10" type="curve"/>
    </contour>
  </outline>
</glyph>
<glyph name="Q.alt6" format="1">
  <advance width="807"/>
  <outline>
    <contour>
      <point x="403" y="-10" type="curve" smooth="yes"/>
      <point x="603" y="-10"/>
      <point x="757" y="139"/>
      <point x="757" y="355" type="curve" smooth="yes"/>
      <point x="757" y="572"/>
      <point x="603" y="720"/>
      <point x="403" y="720" type="curve" smooth="yes"/>
      <point x="204" y="720"/>
      <point x="50" y="572"/>
      <point x="50" y="355" type="curve" smooth="yes"/>
      <point x="50" y="139"/>
      <point x="204" y="-10"/>
    </contour>
    <contour>
      <point x="403" y="45" type="curve" smooth="yes"/>
      <point x="262" y="45"/>
      <point x="163" y="152"/>
      <point x="163" y="355" type="curve" smooth="yes"/>
      <point x="163" y="545"/>
      <point x="263" y="665"/>
      <point x="403" y="665" type="curve" smooth="yes"/>
      <point x="544" y="665"/>
      <point x="645" y="545"/>
      <point x="645" y="355" type="curve" smooth="yes"/>
      <point x="645" y="163"/>
      <point x="549" y="45"/>
    </contour>
    <contour>
      <point x="819" y="-86" type="curve"/>
      <point x="819" y="1" type="line"/>
      <point x="683" y="-10"/>
      <point x="634" y="47"/>
      <point x="596" y="96" type="curve" smooth="yes"/>
      <point x="536" y="172"/>
      <point x="497" y="258"/>
      <point x="389" y="258" type="curve" smooth="yes"/>
      <point x="302" y="258"/>
      <point x="252" y="202"/>
      <point x="252" y="136" type="curve" smooth="yes"/>
      <point x="252" y="99"/>
      <point x="269" y="68"/>
      <point x="292" y="51" type="curve"/>
      <point x="334" y="37" type="line"/>
      <point x="313" y="54"/>
      <point x="300" y="85"/>
      <point x="300" y="120" type="curve" smooth="yes"/>
      <point x="300" y="172"/>
      <point x="330" y="208"/>
      <point x="384" y="208" type="curve" smooth="yes"/>
      <point x="466" y="208"/>
      <point x="492" y="116"/>
      <point x="543" y="37" type="curve" smooth="yes"/>
      <point x="579" y="-19"/>
      <point x="652" y="-100"/>
    </contour>
  </outline>
</glyph>
<glyph name="f.alt" format="1">
  <advance width="411"/>
  <outline>
    <contour>
      <point x="46" y="41" type="line"/>
      <point x="46" y="0" type="line"/>
      <point x="351" y="0" type="line"/>
      <point x="351" y="41" type="line"/>
      <point x="339" y="41" type="line" smooth="yes"/>
      <point x="281" y="41"/>
      <point x="237" y="51"/>
      <point x="237" y="75" type="curve"/>
      <point x="148" y="77" type="line"/>
      <point x="148" y="48"/>
      <point x="113" y="41"/>
      <point x="57" y="41" type="curve"/>
    </contour>
    <contour>
      <point x="46" y="540" type="line"/>
      <point x="46" y="491" type="line"/>
      <point x="390" y="491" type="line"/>
      <point x="390" y="540" type="line"/>
    </contour>
    <contour>
      <point x="237" y="576" type="line" smooth="yes"/>
      <point x="237" y="673"/>
      <point x="280" y="701"/>
      <point x="343" y="701" type="curve" smooth="yes"/>
      <point x="374" y="701"/>
      <point x="399" y="697"/>
      <point x="422" y="691" type="curve"/>
      <point x="422" y="752" type="line"/>
      <point x="403" y="757"/>
      <point x="371" y="761"/>
      <point x="341" y="761" type="curve" smooth="yes"/>
      <point x="246" y="761"/>
      <point x="148" y="720"/>
      <point x="148" y="576" type="curve"/>
      <point x="148" y="4" type="line"/>
      <point x="237" y="4" type="line"/>
    </contour>
  </outline>
</glyph>
<glyph name="j.alt" format="1">
  <advance width="339"/>
  <outline>
    <contour>
      <point x="173" y="644" type="curve" smooth="yes"/>
      <point x="211" y="644"/>
      <point x="239" y="668"/>
      <point x="239" y="708" type="curve" smooth="yes"/>
      <point x="239" y="746"/>
      <point x="211" y="771"/>
      <point x="173" y="771" type="curve" smooth="yes"/>
      <point x="134" y="771"/>
      <point x="106" y="746"/>
      <point x="106" y="708" type="curve" smooth="yes"/>
      <point x="106" y="668"/>
      <point x="134" y="644"/>
    </contour>
    <contour>
      <point x="127" y="-45" type="line" smooth="yes"/>
      <point x="127" y="-145"/>
      <point x="95" y="-182"/>
      <point x="26" y="-182" type="curve" smooth="yes"/>
      <point x="-15" y="-182"/>
      <point x="-51" y="-167"/>
      <point x="-70" y="-133" type="curve"/>
      <point x="-85" y="-150"/>
      <point x="-66" y="-177"/>
      <point x="-38" y="-176" type="curve"/>
      <point x="-38" y="-89" type="line"/>
      <point x="-128" y="-89" type="line"/>
      <point x="-128" y="-175" type="line"/>
      <point x="-104" y="-206"/>
      <point x="-47" y="-236"/>
      <point x="27" y="-236" type="curve" smooth="yes"/>
      <point x="142" y="-236"/>
      <point x="226" y="-170"/>
      <point x="226" y="-39" type="curve" smooth="yes"/>
      <point x="226" y="540" type="line"/>
      <point x="35" y="540" type="line"/>
      <point x="35" y="495" type="line"/>
      <point x="50" y="493" type="line" smooth="yes"/>
      <point x="102" y="486"/>
      <point x="127" y="477"/>
      <point x="127" y="448" type="curve" smooth="yes"/>
    </contour>
  </outline>
</glyph>
<glyph name="one.old" format="1">
  <advance width="470"/>
  <outline>
    <contour>
      <point x="66" y="57" type="line"/>
      <point x="66" y="0" type="line"/>
      <point x="432" y="0" type="line"/>
      <point x="432" y="57" type="line"/>
      <point x="300" y="57" type="line"/>
      <point x="300" y="57" type="line"/>
      <point x="198" y="57" type="line"/>
      <point x="198" y="57" type="line"/>
    </contour>
    <contour>
      <point x="198" y="511" type="line"/>
      <point x="198" y="0" type="line"/>
      <point x="300" y="0" type="line"/>
      <point x="300" y="528" type="line"/>
      <point x="209" y="528" type="line"/>
      <point x="56" y="496" type="line"/>
      <point x="56" y="438" type="line"/>
      <point x="266" y="476" type="line"/>
    </contour>
  </outline>
</glyph>
<glyph name="s.srf" format="1">
  <advance width="520"/>
  <outline>
    <contour>
      <point x="281" y="44" type="curve" smooth="yes"/>
      <point x="195" y="44"/>
      <point x="136" y="91"/>
      <point x="111" y="175" type="curve"/>
      <point x="40" y="175" type="line"/>
      <point x="40" y="0" type="line"/>
      <point x="93" y="0" type="line"/>
      <point x="104" y="123" type="line"/>
      <point x="101" y="129"/>
      <point x="79" y="143"/>
      <point x="72" y="142" type="curve"/>
      <point x="105" y="30"/>
      <point x="198" y="-10"/>
      <point x="287" y="-10" type="curve"/>
      <point x="402" y="-10"/>
      <point x="481" y="50"/>
      <point x="481" y="151" type="curve" smooth="yes"/>
      <point x="481" y="266"/>
      <point x="390" y="293"/>
      <point x="302" y="314" type="curve" smooth="yes"/>
      <point x="222" y="333"/>
      <point x="150" y="342"/>
      <point x="150" y="413" type="curve" smooth="yes"/>
      <point x="150" y="463"/>
      <point x="181" y="498"/>
      <point x="247" y="498" type="curve" smooth="yes"/>
      <point x="312" y="498"/>
      <point x="359" y="460"/>
      <point x="382" y="391" type="curve"/>
      <point x="451" y="391" type="line"/>
      <point x="451" y="545" type="line"/>
      <point x="402" y="545" type="line"/>
      <point x="388" y="455" type="line"/>
      <point x="392" y="447"/>
      <point x="411" y="424"/>
      <point x="418" y="420" type="curve"/>
      <point x="403" y="491"/>
      <point x="337" y="552"/>
      <point x="239" y="552" type="curve" smooth="yes"/>
      <point x="135" y="552"/>
      <point x="63" y="489"/>
      <point x="63" y="398" type="curve" smooth="yes"/>
      <point x="63" y="286"/>
      <point x="155" y="258"/>
      <point x="242" y="237" type="curve" smooth="yes"/>
      <point x="319" y="218"/>
      <point x="389" y="203"/>
      <point x="389" y="134" type="curve" smooth="yes"/>
      <point x="389" y="74"/>
      <point x="343" y="44"/>
    </contour>
  </outline>
</glyph>
